<mxfile host="app.diagrams.net" modified="2023-04-06T09:01:19.478Z" agent="Mozilla/5.0 (Macintosh; Intel Mac OS X 10_15_7) AppleWebKit/537.36 (KHTML, like Gecko) Chrome/111.0.0.0 Safari/537.36" version="21.1.4" etag="R_t1kmSTaMGStOMPTVcb" type="github">
  <diagram name="Page-1" id="Lw-mVl7acBML5hbWYpv1">
    <mxGraphModel>
      <root>
        <mxCell id="0" />
        <mxCell id="1" parent="0" />
      </root>
    </mxGraphModel>
  </diagram>
</mxfile>
